<?xml version="1.0" encoding="UTF-8"?>
<svg id="Layer_1" xmlns="http://www.w3.org/2000/svg" version="1.1" viewBox="0 0 841.9 595.3">
  <!-- Generator: Adobe Illustrator 29.5.1, SVG Export Plug-In . SVG Version: 2.1.0 Build 141)  -->
  <defs>
    <style>
      .st0 {
        fill: #fff;
        stroke: #2c3e50;
        stroke-miterlimit: 10;
        stroke-width: 3px;
      }
    </style>
  </defs>
  <path class="st0" d="M422.1,216.2c0,25.3,20.5,45.7,45.7,45.7s.8,0,1.1,0c0,0,0,0,0,0,.7,0,1.4,0,2-.1,1,0,2,0,3,0,16.9,0,32.7,5.3,45.5,14.4,20.8,14.7,34.2,39.2,33.4,66.8-1.2,42.8-37,76.6-79.9,76.6h-107.6s0,0,0,0c0-8.8,3.5-16.7,9.2-22.5,5.7-5.8,13.5-9.5,22.3-9.6,26.2-.5,61.7-1.1,76.7-1.1,25.3,0,45.7-20.5,45.7-45.7s-20.5-45.7-45.7-45.7h0c-.9,0-1.7,0-2.6,0-.8,0-1.7.1-2.6.1h-.2c-17,0-32.7-5.4-45.5-14.4-20.8-14.7-34.2-39.2-33.4-66.8.5-16.3,5.9-31.2,14.8-43.5h-96.8c0-.1,0,107.1,0,107.1l57.4.7c0,18.1-14.6,32.7-32.6,32.7h-.4l-24.3-.3v109.2c-9.1,0-17.4-3.7-23.4-9.7-6-6-9.7-14.2-9.7-23.4v-227.8c0-12,9.7-21.6,21.6-21.6l169.1.2c1.4,0,2.8-.1,4.2-.1h64.5c18.2,0,32.9,14.7,32.9,32.9h0c-.5,0-79.8.3-98.8.3s-45.7,20.5-45.7,45.7Z"/>
  <path class="st0" d="M606.7,234.5l-22.5,42.6-21.8,42.7-12-14.1-71.8,64c-5.1,4.5-12.9,4.1-17.5-1l-54.2-60.7-114.5,94.3c-13.8,11.4-34.3,9.4-45.7-4.4h0s143.8-118.5,143.8-118.5c11.2-9.2,27.6-7.9,37.2,2.9l44.3,49.8,57-50.9-12.7-14.2,45.2-16,45.2-16.6Z"/>
</svg>